# Blender v2.75 (sub 0) OBJ File: 'face.blend'
# www.blender.org
mtllib face.mtl
o Cube
v -0.602869 -4.906408 0.664790
v 0.844486 -3.027613 0.114636
v 1.118352 -1.042082 0.456964
v 1.034617 0.503882 0.867757
v 3.074044 1.909418 -1.391604
v 2.745404 3.128125 -0.843879
v 1.513003 4.045581 0.936223
v -0.130198 4.045581 1.689343
v -1.198280 3.538926 1.826274
v -1.551510 2.335492 1.963205
v -1.201200 1.905566 1.552412
v -0.022884 1.109407 1.347015
v 2.692651 -0.795130 -1.498372
v 1.795688 -2.957893 -1.432337
v 0.119618 -4.567928 -0.871035
v 0.540917 -4.306998 -2.923503
v 2.184123 -2.715435 -3.889224
v 3.074193 -0.779736 -4.480765
v 3.621928 2.095874 -4.362456
v -1.509456 1.105148 2.921721
v -1.087109 0.858773 2.510929
v -0.609532 0.677974 1.963205
v -0.105083 -0.422640 1.483946
v 0.657288 -1.486667 1.141619
v 0.451887 -2.719072 0.730825
v -0.575119 -4.225346 1.347015
v -0.643288 -3.673845 1.415480
v 0.101920 -2.699342 1.073153
v 0.235675 -1.820379 1.210084
v -0.337562 -0.955751 1.552412
v -0.796151 -0.194611 1.963205
v -1.235633 0.130223 2.784791
v -1.503144 0.187547 3.332514
v -1.503144 -0.363407 2.373998
v -1.231787 -1.840916 1.820568
v -0.695559 -2.108677 1.175095
v 0.070631 -2.177648 1.127326
v 0.051523 -2.327584 1.175095
v -1.008863 -2.810631 2.066776
v -0.595787 -4.961420 -0.141907
v -0.097850 3.187709 1.028987
v -0.820385 2.774443 0.764844
v -0.816880 2.580512 0.731827
v -0.091634 2.273348 0.830880
v 0.964241 2.265927 0.269577
v 1.829449 2.676942 -0.225690
v 1.935605 2.931716 0.005434
v 0.980203 3.218337 0.731826
v -1.416525 -2.122087 1.866581
v -0.993016 -2.256835 1.508888
v -2.128320 -3.393839 1.826273
v -2.128320 -2.849911 2.373997
v -2.128320 -2.017853 2.031670
v -2.128320 -1.600078 2.716325
v -2.128320 -0.569911 2.510929
v -2.128320 0.182904 3.811773
v -2.128320 1.270759 3.127118
v -2.128320 2.441348 2.168602
v -2.128320 3.294962 2.100136
v -2.128320 4.235108 2.237067
v -2.128320 -4.452849 2.100135
v -2.128320 -5.310261 1.278549
v -2.128320 -4.972123 -1.665467
v -2.128320 -5.283858 1.278549
v -3.653770 -4.906408 0.664790
v -5.101125 -3.027613 0.114636
v -5.374991 -1.042082 0.456964
v -5.291256 0.503882 0.867757
v -7.330684 1.909418 -1.391604
v -7.002044 3.128125 -0.843879
v -5.769642 4.045581 0.936223
v -4.126441 4.045581 1.689343
v -3.058359 3.538926 1.826274
v -2.128320 3.344496 1.826274
v -2.705129 2.335492 1.963205
v -3.055439 1.905566 1.552412
v -4.233755 1.109407 1.347015
v -6.949290 -0.795130 -1.498372
v -6.052327 -2.957893 -1.432337
v -4.376257 -4.567928 -0.871035
v -4.797556 -4.306998 -2.923503
v -6.440763 -2.715435 -3.889224
v -7.330832 -0.779736 -4.480765
v -7.878568 2.095874 -4.362456
v -2.747183 1.105148 2.921721
v -3.169530 0.858773 2.510929
v -3.647107 0.677974 1.963205
v -4.151556 -0.422640 1.483946
v -4.913927 -1.486667 1.141619
v -4.708526 -2.719072 0.730825
v -3.681520 -4.225346 1.347015
v -3.613351 -3.673845 1.415480
v -4.358559 -2.699342 1.073153
v -4.492314 -1.820379 1.210084
v -3.919077 -0.955751 1.552412
v -3.460488 -0.194611 1.963205
v -3.021006 0.130223 2.784791
v -2.753496 0.187547 3.332514
v -2.753496 -0.363407 2.373998
v -2.128320 -1.568097 2.469088
v -3.024852 -1.840916 1.820568
v -3.561080 -2.108677 1.175095
v -4.327270 -2.177648 1.127326
v -4.308162 -2.327584 1.175095
v -3.247776 -2.810631 2.066776
v -3.660852 -4.961420 -0.141907
v -4.158789 3.187709 1.028987
v -3.436255 2.774443 0.764844
v -3.439759 2.580512 0.731827
v -4.165006 2.273348 0.830880
v -5.220880 2.265927 0.269577
v -6.086088 2.676942 -0.225690
v -6.192245 2.931716 0.005434
v -5.236842 3.218337 0.731826
v -2.840114 -2.122087 1.866581
v -3.263623 -2.256835 1.508888
vt 0.587003 0.791304
vt 0.586732 0.789684
vt 0.679743 0.789684
vt 0.111343 0.751016
vt 0.111343 0.640301
vt 0.224185 0.746372
vt 0.632354 0.749889
vt 0.586732 0.728471
vt 0.663869 0.667547
vt 0.663869 0.778043
vt 0.335550 0.750797
vt 0.335550 0.640301
vt 0.448391 0.746151
vt 0.840355 0.123527
vt 0.721261 0.137558
vt 0.719368 0.000241
vt 0.623337 0.130012
vt 0.665156 0.110979
vt 0.560994 0.503866
vt 0.521945 0.451706
vt 0.544197 0.445143
vt 0.593575 0.175821
vt 0.587150 0.206259
vt 0.500000 0.156944
vt 0.745112 0.552835
vt 0.689654 0.531520
vt 0.677091 0.433759
vt 0.697519 0.243699
vt 0.794368 0.245336
vt 0.624665 0.529291
vt 0.616332 0.579263
vt 0.586797 0.549566
vt 0.658452 0.261868
vt 0.931343 0.232427
vt 0.554306 0.255632
vt 0.500000 0.216477
vt 0.631311 0.262765
vt 0.500000 0.303101
vt 0.500000 0.257984
vt 0.541757 0.297200
vt 0.676347 0.588136
vt 0.571484 0.289611
vt 0.625933 0.283779
vt 0.597978 0.290175
vt 0.741677 0.572173
vt 0.500288 0.334813
vt 0.694783 0.352887
vt 0.785151 0.657973
vt 0.795176 0.640301
vt 0.785151 0.686232
vt 0.795178 0.667761
vt 0.628415 0.291471
vt 0.552665 0.311922
vt 0.111343 0.775921
vt 0.134380 0.756874
vt 0.190433 0.775921
vt 0.158401 0.751497
vt 0.652083 0.331372
vt 0.632523 0.313492
vt 0.825821 0.364383
vt 0.000241 0.791412
vt 0.042924 0.774174
vt 0.079330 0.791412
vt 0.627013 0.786797
vt 0.586732 0.786797
vt 0.626567 0.778524
vt 0.581100 0.774449
vt 0.581100 0.746189
vt 0.584557 0.753718
vt 0.076767 0.753720
vt 0.083310 0.773692
vt 0.000241 0.773692
vt 0.987846 0.344881
vt 0.599645 0.357277
vt 0.531188 0.388184
vt 0.515004 0.423865
vt 0.500000 0.378313
vt 0.612273 0.384723
vt 0.570040 0.396621
vt 0.609212 0.640301
vt 0.532632 0.417063
vt 0.577035 0.439419
vt 0.500000 0.455350
vt 0.500000 0.425396
vt 0.617431 0.463342
vt 0.999759 0.508230
vt 0.836480 0.508557
vt 0.530807 0.515804
vt 0.500000 0.519295
vt 0.589178 0.540789
vt 0.505407 0.569824
vt 0.545586 0.598178
vt 0.806799 0.576369
vt 0.597331 0.633265
vt 0.694996 0.639819
vt 0.677068 0.701044
vt 0.664350 0.640301
vt 0.755341 0.640301
vt 0.764836 0.689798
vt 0.580961 0.745708
vt 0.580961 0.718248
vt 0.584557 0.738244
vt 0.381584 0.776770
vt 0.361691 0.791267
vt 0.335550 0.776770
vt 0.794900 0.753086
vt 0.777813 0.775594
vt 0.743922 0.753086
vt 0.148415 0.792160
vt 0.111343 0.776403
vt 0.162322 0.776403
vt 0.747420 0.727595
vt 0.702997 0.752604
vt 0.664350 0.727595
vt 0.784670 0.727113
vt 0.586047 0.776982
vt 0.585039 0.719301
vt 0.586047 0.718248
vt 0.428363 0.793369
vt 0.335550 0.791749
vt 0.428561 0.791749
vt 0.110862 0.640301
vt 0.110862 0.753238
vt 0.000241 0.644853
vt 0.498373 0.737743
vt 0.508567 0.825319
vt 0.448873 0.747226
vt 0.535866 0.718248
vt 0.335069 0.640301
vt 0.335069 0.753238
vt 0.224666 0.644847
vt 0.159645 0.123526
vt 0.280632 0.000241
vt 0.278739 0.137558
vt 0.376663 0.130012
vt 0.334844 0.110979
vt 0.439006 0.503866
vt 0.455803 0.445143
vt 0.478056 0.451706
vt 0.406425 0.175821
vt 0.412850 0.206259
vt 0.254888 0.552835
vt 0.322909 0.433759
vt 0.310346 0.531520
vt 0.302481 0.243699
vt 0.205632 0.245336
vt 0.375335 0.529291
vt 0.413203 0.549566
vt 0.383668 0.579263
vt 0.341548 0.261868
vt 0.068657 0.232427
vt 0.445695 0.255632
vt 0.368689 0.262765
vt 0.458244 0.297200
vt 0.323653 0.588136
vt 0.428516 0.289611
vt 0.402022 0.290175
vt 0.374067 0.283779
vt 0.258323 0.572173
vt 0.586953 0.789202
vt 0.586732 0.787278
vt 0.697079 0.787278
vt 0.499712 0.334813
vt 0.305217 0.352887
vt 0.448391 0.771592
vt 0.434910 0.796428
vt 0.448011 0.751279
vt 0.434910 0.775411
vt 0.371585 0.291471
vt 0.447335 0.311922
vt 0.743440 0.777510
vt 0.664350 0.777510
vt 0.720403 0.758463
vt 0.696382 0.753086
vt 0.347917 0.331372
vt 0.367477 0.313491
vt 0.174179 0.364383
vt 0.303756 0.791412
vt 0.224666 0.791412
vt 0.261072 0.774174
vt 0.665595 0.786182
vt 0.664350 0.777992
vt 0.705035 0.777992
vt 0.536347 0.797956
vt 0.550663 0.747745
vt 0.563455 0.750219
vt 0.536347 0.718248
vt 0.580341 0.774449
vt 0.576884 0.753718
vt 0.580341 0.746189
vt 0.231210 0.753720
vt 0.307736 0.773692
vt 0.224666 0.773692
vt 0.012154 0.344881
vt 0.400355 0.357277
vt 0.468812 0.388183
vt 0.484996 0.423865
vt 0.387727 0.384723
vt 0.429960 0.396621
vt 0.448873 0.838216
vt 0.467368 0.417063
vt 0.422965 0.439419
vt 0.382569 0.463342
vt 0.000241 0.508230
vt 0.163520 0.508557
vt 0.469193 0.515804
vt 0.410822 0.540789
vt 0.494594 0.569824
vt 0.454414 0.598178
vt 0.563937 0.768724
vt 0.563937 0.718248
vt 0.576402 0.761231
vt 0.193201 0.576369
vt 0.402670 0.633265
vt 0.305004 0.639819
vt 0.475536 0.640301
vt 0.537305 0.717767
vt 0.448873 0.696341
vt 0.558189 0.671897
vt 0.580480 0.745708
vt 0.576884 0.738244
vt 0.580480 0.718248
vt 0.428098 0.791267
vt 0.382065 0.791267
vt 0.408205 0.776770
vt 0.743922 0.776076
vt 0.794900 0.776076
vt 0.761009 0.798584
vt 0.176711 0.792160
vt 0.162804 0.776403
vt 0.213783 0.776403
vt 0.335550 0.751279
vt 0.418620 0.751279
vt 0.379973 0.776288
vt 0.586250 0.640301
vn -0.106800 -0.696300 0.709700
vn 0.490500 0.842300 -0.223200
vn 0.290300 -0.953100 -0.085800
vn 0.001600 -0.991800 -0.127500
vn 0.743800 -0.592500 0.309300
vn 0.641500 -0.234500 0.730400
vn 0.577900 -0.816000 0.010100
vn 0.562000 -0.824400 0.067000
vn 0.693800 0.379800 0.611800
vn 0.606100 0.410000 0.681600
vn 0.758800 0.295800 0.580300
vn 0.490200 -0.149600 0.858600
vn -0.006300 0.176100 0.984300
vn 0.667300 -0.325800 0.669700
vn 0.470800 -0.008100 0.882200
vn 0.620000 0.026600 0.784200
vn 0.790700 -0.364600 0.491700
vn 0.818300 -0.503600 0.277000
vn 0.287800 0.173800 0.941800
vn 0.190800 -0.488100 0.851600
vn 0.348500 -0.306800 0.885600
vn 0.714300 -0.229900 0.661000
vn 0.862300 -0.498200 0.090500
vn 0.447600 -0.003100 0.894200
vn 0.000000 -0.299300 0.954100
vn 0.605200 -0.096700 0.790100
vn -0.045400 -0.257800 0.965100
vn 0.000000 -0.186000 0.982500
vn 0.477200 0.061300 0.876600
vn 0.391800 -0.426500 0.815200
vn 0.441700 0.195700 0.875500
vn -0.323100 -0.229300 0.918100
vn -0.245900 -0.789900 -0.561700
vn 0.627600 -0.475800 0.616200
vn -0.607700 -0.274400 0.745200
vn 0.771600 -0.134700 0.621600
vn 0.566500 -0.259200 0.782300
vn 0.923600 -0.371800 -0.093500
vn 0.455600 -0.245200 0.855700
vn 0.664100 -0.102800 0.740600
vn 0.900200 -0.243400 0.361200
vn 0.954400 -0.266800 0.133700
vn 0.418900 -0.123200 0.899600
vn 0.486900 -0.512600 0.707200
vn 0.696100 -0.234700 0.678500
vn -0.041100 -0.468500 0.882500
vn 0.543700 -0.041800 0.838200
vn 0.602300 -0.236300 0.762500
vn 0.783900 -0.310200 0.537800
vn 0.709300 0.178200 0.682000
vn 0.000000 0.551700 0.834000
vn 0.000000 -0.194800 0.980800
vn 0.507400 0.273000 0.817300
vn 0.943800 -0.291500 0.155700
vn 0.643600 -0.333800 0.688700
vn 0.648200 0.410200 0.641600
vn -0.047100 0.496900 0.866500
vn 0.429700 0.159200 0.888800
vn -0.311300 -0.019300 0.950100
vn 0.225300 -0.720500 0.655800
vn 0.407900 -0.404300 0.818600
vn 0.329600 -0.543700 0.771800
vn 0.466700 -0.425800 0.775100
vn -0.290300 -0.953100 -0.085800
vn -0.743800 -0.592500 0.309300
vn -0.641500 -0.234500 0.730400
vn -0.577900 -0.816000 0.010100
vn -0.562000 -0.824400 0.067000
vn -0.693800 0.379800 0.611800
vn -0.758800 0.295800 0.580300
vn -0.606100 0.410000 0.681600
vn -0.490200 -0.149600 0.858600
vn -0.667300 -0.325800 0.669700
vn -0.620000 0.026600 0.784200
vn -0.470800 -0.008100 0.882200
vn -0.790700 -0.364600 0.491700
vn -0.818300 -0.503600 0.277000
vn -0.287800 0.173800 0.941800
vn -0.348500 -0.306800 0.885600
vn -0.190800 -0.488100 0.851600
vn -0.714300 -0.229900 0.661000
vn -0.862300 -0.498200 0.090500
vn -0.447600 -0.003100 0.894200
vn -0.605200 -0.096700 0.790100
vn -0.477200 0.061300 0.876600
vn -0.391800 -0.426500 0.815200
vn -0.441700 0.195700 0.875500
vn 0.245900 -0.789900 -0.561700
vn 0.323100 -0.229300 0.918100
vn -0.627600 -0.475800 0.616200
vn -0.771600 -0.134700 0.621600
vn -0.566500 -0.259200 0.782300
vn -0.923600 -0.371800 -0.093500
vn -0.455600 -0.245200 0.855700
vn -0.664100 -0.102800 0.740600
vn -0.900200 -0.243400 0.361200
vn -1.000000 0.000000 0.000000
vn -0.954400 -0.266800 0.133700
vn -0.418900 -0.123200 0.899600
vn -0.486900 -0.512600 0.707200
vn -0.696100 -0.234700 0.678500
vn -0.543700 -0.041800 0.838200
vn -0.602300 -0.236300 0.762500
vn -0.783900 -0.310200 0.537800
vn -0.709300 0.178200 0.682000
vn -0.507400 0.273000 0.817300
vn -0.943800 -0.291500 0.155700
vn -0.643600 -0.333800 0.688700
vn -0.648200 0.410200 0.641600
vn -0.429700 0.159200 0.888800
vn -0.225300 -0.720500 0.655800
vn -0.407900 -0.404300 0.818600
vn -0.329600 -0.543700 0.771800
vn -0.466700 -0.425800 0.775100
usemtl Material.001
s 1
f 64/1/1 62/2/2 40/3/3
f 40/4/3 62/5/2 63/6/4
f 1/7/5 26/8/6 64/9/1
f 1/7/5 64/9/1 40/10/3
f 40/11/3 64/12/1 63/13/4
f 16/14/7 15/15/8 63/16/4
f 1/17/5 40/18/3 15/15/8
f 11/19/9 20/20/10 21/21/11
f 26/22/6 27/23/12 61/24/13
f 46/25/14 45/26/15 4/27/16
f 26/22/6 1/17/5 2/28/17
f 2/28/17 1/17/5 15/15/8
f 2/28/17 15/15/8 14/29/18
f 14/29/18 15/15/8 16/14/7
f 44/30/19 41/31/20 42/32/21
f 27/23/12 26/22/6 25/33/22
f 25/33/22 26/22/6 2/28/17
f 14/29/18 16/14/7 17/34/23
f 27/23/12 39/35/24 51/36/25
f 28/37/26 39/35/24 27/23/12
f 28/37/26 27/23/12 25/33/22
f 53/38/27 52/39/28 49/40/29
f 49/40/29 52/39/28 39/35/24
f 41/31/20 44/30/19 48/41/30
f 49/40/29 39/35/24 50/42/31
f 28/37/26 38/43/32 36/44/33
f 45/26/15 46/25/14 47/45/34
f 49/40/29 100/46/35 53/38/27
f 25/33/22 2/28/17 3/47/36
f 3/47/36 2/28/17 14/29/18
f 38/48/32 28/49/26 29/50/37
f 29/50/37 28/49/26 37/51/38
f 37/52/38 28/37/26 25/33/22
f 35/53/39 100/46/35 49/40/29
f 35/53/39 49/40/29 50/42/31
f 35/54/39 50/55/31 37/56/38
f 37/56/38 50/55/31 36/57/33
f 24/58/40 29/59/37 25/33/22
f 24/58/40 25/33/22 3/47/36
f 3/47/36 14/29/18 13/60/41
f 13/60/41 14/29/18 17/34/23
f 35/61/39 36/62/33 37/63/38
f 37/64/38 36/65/33 38/66/32
f 29/67/37 38/68/32 37/69/38
f 37/70/38 29/71/37 35/72/39
f 13/60/41 17/34/23 18/73/42
f 35/53/39 29/59/37 30/74/43
f 50/42/31 39/35/24 28/37/26
f 27/23/12 51/36/25 61/24/13
f 15/15/8 40/18/3 63/16/4
f 30/74/43 29/59/37 24/58/40
f 34/75/44 33/76/45 55/77/46
f 55/77/46 100/46/35 34/75/44
f 30/74/43 24/58/40 23/78/47
f 23/78/47 24/58/40 3/47/36
f 34/75/44 35/53/39 31/79/48
f 31/79/48 30/74/43 23/78/47
f 26/8/6 61/80/13 64/9/1
f 31/79/48 32/81/49 34/75/44
f 23/78/47 3/47/36 4/27/16
f 4/27/16 3/47/36 13/60/41
f 100/46/35 35/53/39 34/75/44
f 32/81/49 31/79/48 22/82/50
f 22/82/50 31/79/48 23/78/47
f 57/83/51 56/84/52 33/76/45
f 4/27/16 12/85/53 23/78/47
f 57/83/51 33/76/45 20/20/10
f 20/20/10 33/76/45 32/81/49
f 20/20/10 32/81/49 21/21/11
f 21/21/11 32/81/49 22/82/50
f 19/86/54 5/87/55 18/73/42
f 4/27/16 13/60/41 5/87/55
f 29/59/37 37/52/38 25/33/22
f 12/85/53 11/19/9 22/82/50
f 11/19/9 21/21/11 22/82/50
f 10/88/56 58/89/57 20/20/10
f 58/89/57 57/83/51 20/20/10
f 11/19/9 10/88/56 20/20/10
f 32/81/49 33/76/45 34/75/44
f 12/85/53 4/27/16 45/26/15
f 5/87/55 46/25/14 4/27/16
f 11/19/9 12/85/53 44/30/19
f 44/30/19 12/85/53 45/26/15
f 33/76/45 56/84/52 55/77/46
f 43/90/58 42/32/21 11/19/9
f 43/90/58 11/19/9 44/30/19
f 10/88/56 74/91/59 58/89/57
f 42/32/21 10/88/56 11/19/9
f 74/91/59 10/88/56 42/32/21
f 35/53/39 30/74/43 31/79/48
f 50/42/31 28/37/26 36/44/33
f 44/30/19 45/26/15 48/41/30
f 74/91/59 42/32/21 9/92/60
f 9/92/60 42/32/21 41/31/20
f 5/87/55 13/60/41 18/73/42
f 43/90/58 44/30/19 42/32/21
f 46/25/14 5/87/55 6/93/61
f 8/94/62 9/92/60 41/31/20
f 8/94/62 41/31/20 48/41/30
f 39/35/24 52/39/28 51/36/25
f 48/41/30 45/26/15 47/45/34
f 47/45/34 46/25/14 6/93/61
f 8/94/62 48/41/30 7/95/63
f 7/95/63 48/41/30 47/45/34
f 7/95/63 47/45/34 6/93/61
f 12/85/53 22/82/50 23/78/47
f 62/96/2 61/97/13 26/98/6
f 1/99/5 62/96/2 26/98/6
f 37/100/38 28/101/26 38/102/32
f 36/103/33 50/104/31 35/105/39
f 29/106/37 38/107/32 36/108/33
f 37/109/38 36/110/33 29/111/37
f 29/112/37 36/113/33 35/114/39
f 6/93/61 19/86/54 5/87/55
f 1/99/5 40/115/3 62/96/2
f 61/116/13 64/117/1 62/118/2
f 64/119/1 106/120/64 62/121/2
f 106/122/64 63/123/4 62/124/2
f 65/125/65 64/126/1 91/127/66
f 65/125/65 106/128/64 64/126/1
f 106/129/64 63/130/4 64/131/1
f 81/132/67 63/133/4 80/134/68
f 65/135/65 80/134/68 106/136/64
f 76/137/69 86/138/70 85/139/71
f 91/140/66 61/24/13 92/141/72
f 112/142/73 68/143/74 111/144/75
f 91/140/66 66/145/76 65/135/65
f 66/145/76 80/134/68 65/135/65
f 66/145/76 79/146/77 80/134/68
f 79/146/77 81/132/67 80/134/68
f 110/147/78 108/148/79 107/149/80
f 92/141/72 90/150/81 91/140/66
f 90/150/81 66/145/76 91/140/66
f 79/146/77 82/151/82 81/132/67
f 92/141/72 51/36/25 105/152/83
f 93/153/84 92/141/72 105/152/83
f 93/153/84 90/150/81 92/141/72
f 53/38/27 115/154/85 52/39/28
f 115/154/85 105/152/83 52/39/28
f 107/149/80 114/155/86 110/147/78
f 115/154/85 116/156/87 105/152/83
f 93/153/84 102/157/88 104/158/89
f 111/144/75 113/159/90 112/142/73
f 64/160/1 62/161/2 63/162/4
f 115/154/85 53/38/27 100/163/35
f 90/150/81 67/164/91 66/145/76
f 67/164/91 79/146/77 66/145/76
f 104/165/89 94/166/92 93/167/84
f 94/166/92 103/168/93 93/167/84
f 103/169/93 90/150/81 93/153/84
f 101/170/94 115/154/85 100/163/35
f 101/170/94 116/156/87 115/154/85
f 101/171/94 103/172/93 116/173/87
f 103/172/93 102/174/88 116/173/87
f 89/175/95 90/150/81 94/176/92
f 89/175/95 67/164/91 90/150/81
f 67/164/91 78/177/96 79/146/77
f 78/177/96 82/151/82 79/146/77
f 101/178/94 103/179/93 102/180/88
f 103/181/93 104/182/89 102/183/88
f 55/184/46 100/185/35 54/186/97
f 100/185/35 53/187/27 54/186/97
f 94/188/92 103/189/93 104/190/89
f 103/191/93 101/192/94 94/193/92
f 78/177/96 83/194/98 82/151/82
f 101/170/94 95/195/99 94/176/92
f 116/156/87 93/153/84 105/152/83
f 92/141/72 61/24/13 51/36/25
f 80/134/68 63/133/4 106/136/64
f 95/195/99 89/175/95 94/176/92
f 99/196/100 55/77/46 98/197/101
f 55/77/46 99/196/100 100/163/35
f 95/195/99 88/198/102 89/175/95
f 88/198/102 67/164/91 89/175/95
f 99/196/100 96/199/103 101/170/94
f 96/199/103 88/198/102 95/195/99
f 91/127/66 64/126/1 61/200/13
f 96/199/103 99/196/100 97/201/104
f 88/198/102 68/143/74 67/164/91
f 68/143/74 78/177/96 67/164/91
f 100/163/35 99/196/100 101/170/94
f 97/201/104 87/202/105 96/199/103
f 87/202/105 88/198/102 96/199/103
f 57/83/51 98/197/101 56/84/52
f 68/143/74 88/198/102 77/203/106
f 57/83/51 85/139/71 98/197/101
f 85/139/71 97/201/104 98/197/101
f 85/139/71 86/138/70 97/201/104
f 86/138/70 87/202/105 97/201/104
f 84/204/107 83/194/98 69/205/108
f 68/143/74 69/205/108 78/177/96
f 94/176/92 90/150/81 103/169/93
f 77/203/106 87/202/105 76/137/69
f 76/137/69 87/202/105 86/138/70
f 75/206/109 85/139/71 58/89/57
f 58/89/57 85/139/71 57/83/51
f 76/137/69 85/139/71 75/206/109
f 97/201/104 99/196/100 98/197/101
f 77/203/106 111/144/75 68/143/74
f 69/205/108 68/143/74 112/142/73
f 76/137/69 110/147/78 77/203/106
f 110/147/78 111/144/75 77/203/106
f 98/197/101 55/77/46 56/84/52
f 109/207/110 76/137/69 108/148/79
f 109/207/110 110/147/78 76/137/69
f 75/206/109 58/89/57 74/208/59
f 108/148/79 76/137/69 75/206/109
f 74/208/59 108/148/79 75/206/109
f 101/170/94 96/199/103 95/195/99
f 116/156/87 102/157/88 93/153/84
f 110/147/78 114/155/86 111/144/75
f 74/208/59 73/209/111 108/148/79
f 73/209/111 107/149/80 108/148/79
f 74/210/59 58/211/57 59/212/97
f 69/205/108 83/194/98 78/177/96
f 109/207/110 108/148/79 110/147/78
f 112/142/73 70/213/112 69/205/108
f 72/214/113 107/149/80 73/209/111
f 72/214/113 114/155/86 107/149/80
f 105/152/83 51/36/25 52/39/28
f 114/155/86 113/159/90 111/144/75
f 113/159/90 70/213/112 112/142/73
f 72/214/113 71/215/114 114/155/86
f 71/215/114 113/159/90 114/155/86
f 71/215/114 70/213/112 113/159/90
f 77/203/106 88/198/102 87/202/105
f 62/216/2 91/217/66 61/218/13
f 65/219/65 91/217/66 62/216/2
f 103/220/93 104/221/89 93/222/84
f 102/223/88 101/224/94 116/225/87
f 94/226/92 102/227/88 104/228/89
f 103/229/93 94/230/92 102/231/88
f 94/232/92 101/233/94 102/234/88
f 70/213/112 69/205/108 84/204/107
f 65/219/65 62/216/2 106/235/64
l 60 59
